# xmcd
#
# Track frame offsets:
#	150
#	8437
#	17803
#	33348
#	44783
#	53787
#	62485
#	70549
#	82932
#	92222
#	105462
#	113937
#	124996
#	134885
#	144258
#	156049
#	165269
#	175520
#	185890
#	202257
#	210028
#	221540
#
# Disc length: 3131 seconds
#
# Revision: 0
# Processed by: cddbd v1.5.2PL0 Copyright (c) Steve Scherf et al.
# Submitted via: dBpowerAMP V4.0
#
DISCID=2c0c3916
DTITLE=Ronnie Hayward and his Trio - Gotta Git It On
DYEAR=2004
DGENRE=Rockabilly
TTITLE0=Gotta Git It On
TTITLE1=I'm Wild About You Baby
TTITLE2=While The Ice Runs Through
TTITLE3=That Ain't It
TTITLE4=Love Me
TTITLE5=Sinful Woman
TTITLE6=Ronnie's Blues No.3
TTITLE7=Let's Rock Tonight
TTITLE8=Go Ahead On
TTITLE9=Shake 'em Up Rock
TTITLE10=Ronnie's Blues No.8
TTITLE11=Now It's Too Late
TTITLE12=Love 'er Now Love 'er Later
TTITLE13=If You'd Stayed
TTITLE14=I Knocked At Your Door
TTITLE15=If Ya Want Me Only
TTITLE16=Once I'm Gone
TTITLE17=It Ain't Here Or Now
TTITLE18=All Alone Blues
TTITLE19=Ya Do Only Do
TTITLE20=That Sweet Angel
TTITLE21=Sittin' In An All Night Cafe
EXTD=
EXTT0=
EXTT1=
EXTT2=
EXTT3=
EXTT4=
EXTT5=
EXTT6=
EXTT7=
EXTT8=
EXTT9=
EXTT10=
EXTT11=
EXTT12=
EXTT13=
EXTT14=
EXTT15=
EXTT16=
EXTT17=
EXTT18=
EXTT19=
EXTT20=
EXTT21=
PLAYORDER=
